<mxfile host="app.diagrams.net" modified="2023-05-29T15:28:38.824Z" agent="Mozilla/5.0 (Macintosh; Intel Mac OS X 10_15_7) AppleWebKit/537.36 (KHTML, like Gecko) Chrome/113.0.0.0 Safari/537.36" etag="uWMr1otMMOU3O1FcsAvF" version="21.3.5" type="github">
  <diagram name="Page-1" id="GpKsj-bvh34qnN1JUlYf">
    <mxGraphModel dx="2762" dy="2161" grid="1" gridSize="10" guides="1" tooltips="1" connect="1" arrows="1" fold="1" page="1" pageScale="1" pageWidth="850" pageHeight="1100" math="0" shadow="0">
      <root>
        <mxCell id="0" />
        <mxCell id="1" parent="0" />
        <mxCell id="AShQ6hyLjzl0emwVlIt_-1" value="&lt;font style=&quot;font-size: 20px;&quot;&gt;Applicant &lt;br&gt;(Advocate)&amp;nbsp;&amp;nbsp;&lt;/font&gt;" style="swimlane;horizontal=0;whiteSpace=wrap;html=1;startSize=79;fillColor=#d5e8d4;strokeColor=#000000;strokeWidth=2;" parent="1" vertex="1">
          <mxGeometry x="-790" y="9" width="2669" height="561" as="geometry" />
        </mxCell>
        <mxCell id="AShQ6hyLjzl0emwVlIt_-2" value="&lt;span data-metadata=&quot;&lt;!--(figmeta)eyJmaWxlS2V5IjoibGZpYlRJckFEVjRNQUtmUmN2WUxyYyIsInBhc3RlSUQiOjQ0Nzg4Mzc4NSwiZGF0YVR5cGUiOiJzY2VuZSJ9Cg==(/figmeta)--&gt;&quot;&gt;&lt;/span&gt;&lt;span data-buffer=&quot;&lt;!--(figma)ZmlnLWtpd2kZAAAARTkAALWdaZxkS1XgI25m1tLV69s39n317Tx2crlVmd25vbyZVd1PfElW5a2qpLMyi7xZ3a9xQ0REREREVERERERERERERUREREREREQFh0FkHIdhHGfGYRzHmf+JiHvzZnU/Zr4MP17HiRMnTmznnDhxIvLW13UtjKLeTti+tB8qddXpRqXeDdr5Vlvxv3qj5HeL5Xx9zQ/I6k7gt1J5z1D79RJwJqis1fNVoGzQPlf1AXIG6Aa+8FowtIZzNzhTaXZbfrWRl5qL9Ua7snquG5QbnWqp22mutfIlqb/kwG6pUZf8cpxv+astPyiDOhIU/brfBd0sd+/t+K1zIFfSyJbfrAryaKmyukp6rFit+PV2t9Ci9WI+kL4dT/XtdKPTYhy+9OxE0G75+ZotIX/S5e2IT+UfGERMwllgJU3o/NYWkwkKqlK3UTcNK5PZaFXaMgZdH/fD5m4vCiErUtQ2LUFUa6wbUG8MRv3BaKd1MBSaeqN+n99qUKAaJVMuHOxqPZxCH5QqNYqdGqMC1MV8fT0fAHlrrUanCZBZbeVrQpctNBpVP1/vNpp+K9+uNOogc+t+sd1oAS3IOEkXqxXDdsmvVivNQMDlFkQsu1nXIy1/rVPNt7rNRvXcmmGyQlP1kl9iumd0R9v+WenSsaBaKQrieHCuVmiIjJyo1GmsbrDMaqV4RqbqVFDON/3uRqVd7rq6VxUb9To8TQevLoo8FqqN4hly12xUSmtGtq6FV01Gel3NL1XyANeXK2vlKv9J8Q0BDOxgb3Rgl8luVfPS6E0b+aBc6bZpmdzN6/lWJV8w/b+l7YCHGKBbZD7IPTQmcZL9sGC3tx9uDKa77fCBqV2Zm4J7O/mWT6mikptETd9qDSM7XhsWMk2IO9lMki01NqSf2SvNZ66Zb+WrVfQG0a51W254C/Poqr8q2EW/vtYt5el53jS+JHk0pCOZZcmsVgzXIwZuVEu+TPFKG63x72tUpJdHmy2/5K8iDaVus9Uo+oHI1TGmy69K+fFY7rpBxfXxRIKqdartStMgT9by9U6+2q3Umx3p26myfzZvBeeqYtlfbxnw6ibVHPqaBsO2oCyu9Oy6ZrUjzV+fb7UaG/Ewb7C5eC5uLAzDUb+Ghgi/fBB022Wmck1shao3WjVjoXQp3zrjC3PP9VIEISNij1QXMABks8VGtZHkckaYTJ2FAL01kFEUapQaCCL5JVslzi7PhOxI0Fhtdw0PcivlfKuU5Ixl8lu+1YZj/tkiA0VGyRwvm+U6EeTbnURhT5pWAE5VO7VKvRFU2tLEVc3eYOTEbyloVM0KKkSiVGFeaU26CkYnKEnNfGApAAWFqIlmg8skOIic1GYrtbwZWQ5rdboCsLBeKflinBYre2wiwVZvGNrZZxdo+e2imfjVioxTI3CmtbYVvIy/vR1uuR5nK6h5iz0gjwZQqEqtRnOW1asNjA4rWS+h/x3poFfIF8/MozKigEVjWxcaiEQFQw5adZrYO1JdbWwYgC60bR8CJKLaLeabIlrZWQ6NaBWNPc4J01K4NZ70poPxiDqx1aVl1pd5BdYMt3LGn0mbVw17Ysbbk8EeubgOvLtl3628rh/sbYaTzmgwjeDbystQVbNy1q8GAJpes5MJpVccj6LpZLbCi6w8eCXlZki6lpeNyKMfbtozQZF9DCC7CsdS19bIuYyhXgimk/H5MD8c7IyokDBTmGcWFkA3Om0Hepa42NtHIuPxMFwjGjoxeJ7VSJkXGUTGZv17O5Uqmx2WCmTWyZTYILvV5pg+hA8LmKAW0jZ8cWalu7eRX0rlbye/nMrfQf5IKn8n+ZVU/i7yR1P5u8kfK1ZaxXTrx+1oT48HMjM1du8WWFXw130ZgY4H7hXG42HYGzX2w1hAsp261VSmkWqy5QDroFPAuBrYO2sU2MirmfzyeDJ48Xg07Q2p7kxbam2RZTML3ukOm+VqxfRwVns9nEwHqJ7gGk2KUlULjXa7UQPyauODKCweTKLxhPnBruexfRSoYqsRoGmVFrD2z/mieogeOQ9XzzTVzDMUbGERESefxVST5EiKlSrQQk0sqlRZZInxEoGWkvUz2eV1lH08qQ0mE+lAokVm1Um1AbBAWEa2pLaIsFfqRbvWnnhFtlFQaibg2tgcqw/ZZn0NlDrd9CXVwbokXrMkPl/Gf2B/PJke1qEMvgUmnd3LKYqKEXgWpn0dIxKV9aq9S+OD6dpk0LdMslatUjM+66BntSwzq9PsTafhZEQRVJWm0RBstLHV2qznwXTcCqPBi2GdTJHpjpmZpB86gTyp1p4cjLac+HmlSiDuifBUuKpszQA6mF4ahkHoxs7StYKGs49tnFoSXUS6rKzgX+Mr1IuysWTafq3ZaOWNb52N2TCZ0zCZycv2G0Ad7xYYjt7WebuMyZjKGOj7mF3TA81GiRNoYEtt5JrmLptdO6VeASETEwOcMRWK4wM6NHH1Fh6sHtPuFieT77Rl58qmWOUMq9MH0XSwfYmiB+XSzBf9LqbAuvi2B4FdNGNfQeLSB5X7/G67gVEx8zGHQMZY00qtiW9MTkqgsYNvjqOBrCXbByjXT5UvMMsde4owZBsTMcVsLZwu8k3QyqW2OD0jbrWgjrnZIRT89ob1ZTQkIzSUZu2aLsUrheb7ciTqymmQvO60zDoV2H9JM8Vqw3iYWdzhbuwbk891mvifftf45N1Wp96umFPIAkpVqogzY9Z7sULXJr1Uy8fxz9F2w13lV2m9K1XZicjrWoNTKK4ksGdhW5ChVlk8LuCsLcB3ELKczRlPewEqvFrjyHLwNCNcKrXya6TLlJ3xz8XVjpBdb9iTywqwHUfZrOXRJI+CkT/WnvRGdtHsGG5iB8Vxb3cx+eylMlrIFKrJIq77gHqVoyypx+mIU81qq5H47pkUKjb92RTOGvlcCpNY+YVmJyhbnGO2OMPEvJZmKMtqeYZIOB2RA6nFOU4rM0zM6egMZTkdmyESTsdtR1kmiGJmJ+aQMb+Tc1jL8tQcLuF6lWnJYR3Tq9O4mOc1aaRleW0alXC8DntVKXaljNz1OIPEA/J1zJhRuhvw+xu4hzPMjX4vQkftih8nhFDsFCpFCpSwjjMaHz2V9cTWWBebGqJESVFW6OYwOVt3DrdgzXSSXwyaLWvjl9YwVOyhCWLZkSaIIxYyKoC2WvlfmUe2N8RAHD2ELHPmAX0s2JqMh8PSYGJtBZ12WvQNLDozbCyurYuhmYq+h33M1DSk3D/bZHOzVrMIB/GSTE6vddhWtBcRVqEx4EWlh2NcHQN6xfEQX0JnJ2pZ6R3+8Tb5J9Pjn6x1N6j8ADl9iX+8FiioZ4iL/JPZ5Z+s4RRMx/tU2BJYvUDpfWeHIfBqvelk8IDSC3u33kpe7916G4m3d+vtJJm92wSZ3btNkLm92wS50OxNsLmVUT+knrdzMOir+1NMV5Rn/X8KL/SGByF19IE5C9yivFVmqd7bC5XObPf2BsNL0OtINl8ADybTaGsy2J+Sywjtem8y6FHlYC+cDLZWBzsHE6aW7dadeRVix3oCaM76JjIHbJqZrxrs97YQ6rm6HP7xAMSImbwmquCOiVdgsCqLKwNMc8BUcpw3MA4S4mzWN1272NuPEOZZFfTPnBc1STfOeE2fs5t0PQOim+TE5yaaJ2AOFINdA1xI8W/G857uFj45/+Ka4w4BmP4EZpJZnISqgkwbVdN4+cbAr4a9qZngv9VNjnQUqeLtTUPieuEVm4HgM9IbUtNB0pyL5i0QMhHfdLHRKtVJl/KrLSlfLtWNMTpS79SkSyt40BLROsqOKEM6VrLpcXGtSU9wApX0ZD5vvPlTRZtexXFG0qsDm7+mtW4CGdeKYpJeF2yYCOr1xWBD0htYHMHfWCyaUNpNgXWTbi5XTIz0FuehPKTRqkv/HiqTQvow9jdZyoeX2ubQ+ojVal7G8cjaWks28EcFyBrpozkeSPuPWcWbJX1s2aaPK9t2H9+2+Sfca9MnNm36JDnykD65ulqQ/FMaTZM+tdU26Tc1bf1bm2fqMk+3VTEfpLeTSj/vaLWrkr+TVPJ35QutddK784V1yT+NVPp9z7rl8/R1OkT6jEJ1Q9bnmaRC9yxSoXt2/kxZxvGc4mlzlHtucdUowvOKTZPPFzstoSuw1Uu+iHGTtLRq+fuE06Q/q6S3k66R3kFapllpr0Iq/E+X7XhobU36Uy03Tovc4JIaD6RewZEgbZxuPu0e0ubp5j3C597TzaffSto63bz1TtKgerom9dpETYW+w64m67Iu7gvpBqn042ztTE3w5+pV43jdV++caZN+MxuA9Ov5pAHpt6wz4aT3N4O24Lukgn9B60xL8r1WsyzpZqtTkHXfCnBxSftt24+wXTeHjW2WSdZvZ53YFunuui0frNtxv3D9jJGX8+utdot0SHo76V4QYHmVGpFKfkx6B+k+6Z2kLyK9i3RCejdpRPo00impzNMB6dNJLwQBNlupi6TC7wFS4XeJVPi9mFT4fSup8Ps2UuH37aTC7ztIhd93kgq/l+gguF0YfpcurpsevlQAYfndAgjPlwkgTL9HAOH6cgGE7fcKIHxfIYAw/j4BhPMrAUxXv18A4fwqAYTzDwggnF8tgHD+QQGE82sEEM4/JIBwfq0AwvmHBRDOrwMwff4RAYTz6wUQzj8qgHD+MQGE848LIJzfIIBw/gkBhPMbBRDOPymAcH4TwB3C+acEEM5vFkA4/7QAwvktAgjnnxFAOL9VAOH8swII57cJIJx/TgDh/HaAO4XzzwsgnN8hgHD+BQGE8zsFEM6/KIBwfpcAwvmXBBDO7xZAOP+yAML5PQB3CedfEUA4v1cA4fyrAgjn9wkgnH9NAOH8fgGE868LIJx/QwDh/JsCCOcPANwtnH9LAOH8QQGE828LIJw/JIBw/h0BhPOHBRDOvyuAcP6IAML59wQQzh8FeJpw/n0BhPPHBBDOfyCAcP64AML5DwUQzp8QQDj/kQDC+ZMCCOc/FkA4fwrgHuH8JwII508LIJz/VADh/BkBhPOfCSCcPyuAcP5zAYTz5wQQzn8hgHD+SwBjov5KAOH8eQGE8xcEEM5/LYBw/jcCCOcvCiCc/60AwvlLAgjnvxFAOH9ZHw704FpN2a7VnUrHLpYnPmWtt78vTo72tifjPXHLpmP+9QrD8abSevPSNIxURtsIk/IyXNjtSn4kHhn+V7837RnaRZVZH/TDsfK8mCa6ozMZCtHqYMjJtijeZL7/QoIKSi9NpVP4edFurz++GAF6u4OdXc7ou/h9eJL9cNobDIGyIWOJxMnAo7zAGT4kdAS8MA33TKzRFi1eGGxy9twSeMlcAdhm3bWu8o78/21yC49p0mNsy2p5cyI8R7RM7ojpjPKuMwtwUuktmQj1AuWNxcOcigOeuTCIBpt4W1plSdzNzXGVi/DEI7WtF+A9irbHkz21qxYHZjVeptWSgdq7uM8j6Tqo5d4IJIeKihQJ5qTF4PLhkbJsi+oU+fQlxVXqiMXsjg+G/aL0r9YbgaA/103GnE6oTDdXIqkCcHTbzK2hdEv6Cq2O7ctIV00R1lodD/fGLxwUaaFJ9Jg5XtQnLhgheblWVxHp3RmMOMFIyxuD/pSBqavnsOVQ5hH0NVvSEg6s+mxGXSvOaY21KiF8ysudDy+pkdLbYKuDUVyJ1RVMabAT0rsMpwdy1qV9scpKZsMS5rgKIAfzgR2nl+lxod3u7dCwFrAus4Ycx5pjAs628VNbuz1x88NJBIVOcqahSkmG7EUCNy6EE+KeYbvH+qpXeDozNMFQEyzbZNW5rRnS+4itR+d2hpf2dyP2HL3QT25cInYcvbjJse/8iw7Gophv1PqkZbNOByChx0vbDCaZnVdrvbzdGw43iYOtUhCpkT6yiyBOaOx8YfwAXF6n9Qo5oC95+ug0iaByKp24U1tOHXP4sJ/M7/HheEei7YakPS7GY29sb0fhFMuilvWJvUEcc0vqnSqn2ldedpP4XD9SfQ591l64E2JmN6bDAc4Rn3RTpLwltNOeYTBSF43osNxSdg4gI0DSWlZy+WiLHpBbRJnHk7CaupNCd7cHk2ia9J9JzKGC6fzCmiyI8ha2xnt7PXpbsDZvdojdVHad6SqmcJshm5Wl/cuZ9/oXnNVYKCWri+GccCxnHrCcCScxxG65kcsL7n6jgCIwXQZd602YRzeD6T7Yc7+RAqkpmXo4vTiG3HWemdjrDelm3/Q1HsLloio7BRF7JkDL2kTqfq2DS3ub46FjH5kM7bKBWDhmEgkDj9O82K6AvoerzAP2j3WK2SIqZhPyPLPueh8cfhInT0zHWjgSi8sMubbGac76IApXWeA12eUYx6WRObNrdqbB9nZjNLzUwgihuIY6U+JcfkFM497BVEZnDKLl683zJeMUystHiHMr3IZGTA1qHhciqyjJlNbHB/sVpj8WXd2L67xDCw2zWnnwYjNhlQctN5aJzjK9/xeKIJw+OFGACMoMSWPgQmIyyKC3vD0YhmfsuCJTCAs8ADfGco/NnNCKsGyyLm6tInxUnY3dg9xwwEY4uSQL2h4HB5sSktmETBCcCLTozf54hA7alhYPRttDuQKS0H6a5dIg6sRFISKulm23i3H9Wi9Ci+ySZbZirOWq9w82h4NoF2bSsHS3PW6Hvb3qrHvSiHe4kUwFP0lUssGoRQaCqQx7JmvCqrEdXKSnSI8jFhFlM5/rwrwUXZnv+u3/T5xR/N4wSK1IXMWyto8GsIXGrbhGesIWadwKY39R58wEK3cgPkh25l/kSBL/YiHan4S9PhSL0e74InONZ1QImcG+6B7kS21xPIyNq4y2xb0z7a0r3T+wakllr4mTMJaCUnhhsBVfRcYBUTkxm+tSXSSGYaI6nsERI5VYGnk0Uyq2Yl8D3XeVi8WNrvGS9aFG2Dkkw/EAwXX2i9Ew9Eqf9RhsD7C2SC61LM+P4Fw1mEN2zKYz221hoJaSey1FWDyOoWuBkxJPcnEkPUMgl3HElFmXTYhzDhHTcytc75howaLrQIH9eAerMWLNkWdMIr2hlWTUcpdEWNre/0iE3j0+0JcxsGNIahINqZS68dOYy8nzCBp7kUiZ520maMPlE0zlDFWMBarewwc2c2ioVK6eXycYZ+KNiksC97ZHBxsmAuhJKm8FDUHG3RaY27asj2Mt5xI4s5xieqCIn0pBoILWmolEEjVqwrbbvKO7ficIz9YM8MRR7wh3PjrY3iYQjdoPxFc0XUOztnCUprIbTNV3qEx0YUdshfHgWH6ynHlEsj+LJpBrHEzFPxCHjnLMFKuBlyQbB/lFKFbHky30Vt5AYHvOR6CX2HTym9F4eDAN3daLodpKD+rTWh1xPV5fc00qr7Larfu+C/Dnqxv5cwGArhoXTq7FMcdTGcfd2G4cT+VhhxPNzYwO9gJ0nnWIFP6Q03OOKJHFBqIFOBU7B1i2icstmn6xjEv7YvC4c79HLa9hzVl/4+jSiE5YxVtHpoldguAiloD5Nm8wlxQ2Zs79sf4C1gl3IxCwLZ2X2LWVRXlEQkKgu9U4IxjPvWbM+Kur9jVIlrBgoyVQzl3/L2CFsPiGX2qfsm1ZKxtvwG5zirc2IWCNGKSsOb2PBOOqRKxFrPbkPVkmW+SuYzB7yDlTBcKIrKwNQ+AWu7tR9lHFcqVa6jZWu7aYyDr3e/ZBKSNETc+5Eqno5SdbSS/wo5nE/GiHWeQAiv1NZb0B982TVmyqM9bkV3F7qXswGdBD3R9E+8PeJSPGK+LbmKyRWvrfHB5wZnKt7ZsMM0k1/B4OLFQ4bwfaNGWtcNjDl9+1FbL7Bmkr7HFkRZcA0SOz1ICZQVQKhyGuP0KYrR0MpwNpPZysDsJhf90uBQu0hSow9wiDTt9TcTnFAMXnq/XkJJ2SD3cHL5aWxHPmNGOtJ1A2NqC5xLQuJNz8UX9fjpWMOXSg7Fm0ieezH6/0JldTttl/QIOSygCo9LApteh6itwqHtUgsbQyzQGQlHP/VSmVuFrkvhQLZwSXUHSMspfg8RMCW7U2sJ2jmQikcPkn7OxM5RJq1hxLg8jSjF8tNDasoUB78m4etPNkauMLoduOx8P+GbO6uM2I/moi1l6KtjwgkDC5VCF+QZVofIBNM5PVl8my+eIhT2Zj0N8JURm6zqJ6nBZier8/4FworWenA0Rm2tvbr0Tje+4m3Es/sI4TCGExpEdCHPbzcorPbOFsxJmsFDBDxmJ4JV+ezTNCtVHmIqvQyLdk7Bp1Pm9JMvlqsywBcblTRvl8IG0efrrn0+a0wDlrhPx6X4gNmTmw2LP8Xfu7vShUC8ozgEXevY/piC8nX6gyqawleNpUmj+ijLNhUfeMekYPc5Ja1NMHUdM6n+KHoyfv0jhqeMH7ZsFX1Ae94Ww5zOT9i1YvSSPdGql/1frHncL+tjV6iPSius2Btr1wEAXj7anTy0CKaPTdmmDFeNTZ7zPNriO/DA6hGMY0P0nebmcx5qd1JFCb8RFvJAptsqW57v92bHKBf0EzyivY2y9pAs6popnx/qImAn3IAH/IG78QzzI44IwfhEiG0V5jUoTTX6AsF2rj8Wg4IKozvBS38HnM5S6nOAkz2TExO/cTZ3fo1NBMwVviAlHFGfrnYrTbpJOCtycFxr+eFfx8XCD79Az9jhid6g8ug+0G5b+uI4PsgxQSBEN9wi2r4CxhXPJHqRLpsOA+mcLZTgn2j1NY6ZHgPpXy55o99DbihkT/jr5iDwsJKb38sBEKhGYNzL7SBJejJItPwxpNL63LbtKY9BEE9dee/lq81ma/mi32+7R6MdwMdl4nvhUoqZA+9X1bumAd/lZEvsOiE8OUkrX3a4JjkaGfF9TX6IP4aAf3dCNvJUKImes8SPGX49Mj0yTK/dk4b5b5z8X1sb04Y1Tzc8xY8XYG9RcxXZhshSuE9m0cszhf6V9mXGRSS+F2hB7oV7J1ptBMZaR+w9Pf77kByoDfotWLZllrBGQpJJwRJHg5GX47tkTOiRyCbIEZwA/ON51nf94Z7ZGLME36VZycCDTnJ2HhYJPFkp3+l5MDZyCnVq5z9Nf1HIqD7Ae0/mdjYo2/+GatxnHGdnE/rlANL4RDlVO/Y6Kyzje9NoYtcQXj29uZ9PZ3xf6yYy6r6w6hLOHpBBs/0lhW1x/GWdIzU9QoT4w//bT48erhV0DbCu2kZB2hl2ibeqJ6xGVIS9wRfJHNRF2nHhnDtmhdsqnw3g3qUfMYS7YxZNN3wUo6NsvZ4ufLDNXZZohwPyGGbdG3GHay6K/V6olxxpbdL6QmKjTisLW3Nx5V5QR3wPFYafWdc6Vs7w9MD3p4nDOKl6ArCUlpgIKF0mV2qjTVd6Wp7PYlU5MmeWmaBNshoX3Q351GB7gJaM994WRM0cvSRXX3ksa+4tnnvvjyQrfcasKtwuWlRPiszzXlajlVXJRXNhe4tUjhkt3pAS6d2VgxNjHzIVexhjJR8Y9D0WM8Noh8k/ow914jVH7nXonKMpA/iRFVZob8n3oy0R2co6o578WsFrmPnI53OAz0G6NG272oidS36T9K8IQy0wWf1EloXP2Lx92gKLLw+ldPfcYomBmRoCIson6Zabow6A9mjf6owbVtVF9Qz1I/Ro+jcq/falfblNHnt6aOnwsOtBL2DMJT542dWLSQRT9zdqe15EBb8CxqJmGn5SRjC58dYQPwuVcktajncoZPLry4lHAZW/i8PhKDkWGBRlwyHEtlLUF+D7+Rvp2U1KJKAlaihj3wU3bVHMISrQrOOEIv99RvpbbThh0Lw7r6MqStuoZep89xXFnN8pakHJnN3t07Laub0nlLUrcoY2rUw9VDUllLcK/FIL7qkeqhScYWtmze/Fbj0ephs5wtDrbxAGaOwWNnWVt+n61gUULxuDTC0nxzaFwQdg2tn+RgW9KdTUzRhRxuP4SyhNvS7lo43gunuLuf1/qONMLS7NiWY6RQ3TmPsnS7cmeCmiGW4/1quI09m806U/xDOk3Qkok+RPHaGUVhPJ2O967A5YcP01yJ0etmRLOSgWxb+wg7CorM/chhmvaY/ZnSGcnrtWzF+KToZIR1ZtRMv9G0H5WjVX7zUODppd7mWDwBxlc2uz64n3I429sE/WaHliEmyJ92SDOmBPsWh2VxcacRdFGZtzkkTVmhZdg/53C2qQT9doeWphLkzzukaSrBvsNhA7O+Fh3NT8oveLvsLXabTuZkqh6qbrkS3opGM5LH/2JkVEFhgl3GFr7Q5GVcGGj6cD6dtyRDg2r2+mLkIdlL5y0JDYIqshKYHqOkalU9YJCnD+xvJ8rqksnb0pL6lDbZctJtx5AG/sQWYaKNhzEr+LQt4ECOj3Va/anNWjeB/Gdsvsk+xAYdDF4stU6rv51Dm/YrnP8juvQVW5TuuC0qqX/ninYHw76rujYZy/vgv7MlrltmCcH++zmsFQLQf2/Rho3hH4TDbSbnqxYf77RUUVX1A5xlQLZwESdReJ8s/QMs+g9atPl1R139rs25PruVoqWPeFwxM2jOrhn1ewR7HogzH52rYXqBjOD5T1VT/TmXQMEI2V7r7aFLvYko2Oc8BMjddshp1HjO3y8KaS8eAonkJQWvmhUUaGdnZucwfT+gZ6zMcf9DWv14CtemFrcob0ihSrMLlZ/QYS95UX+We/4ZVRMXIJxcCAMTtFRa/SqevQkgUWjoWxzBZij5kcqK+rVZX93tyUc1hyiUJb58aFOk2uo3U021Ce6MD2SVP5CmrPXI8J+xSb+lycQlqRF8UOIfRD1Nnl2WpR32JKb+oVQDgXlvEiBk07x5oyJG5o9nXa3MWEfqq57+0qzILAUzZOJT6p889T+0DWSKE4z46U+4/Fy086ta/1U8N3L2hof6R83/E5zPeRjMf5lhqozUHJvVP2v1X2d4U5utl334v82w1Le4f5rhikgdi2W6GsFC/69ZmThaSYTw61r9b82h99Cv6I+q/2yxHVbeqf2y+u/MsDn+XeE2++2aMNKDFq+jZkyp+ppWn/ZGiPOhO/a3aYKlW+AJ82+dr7JdHUhQ+HOe+m5viM+JCF4YhBcN7csy6vWe6ZxzJXFQtXoD0RuzbEWGjsJFyb7yE3iU/XDcRBg2URr1Sk+9U/R0b9+we2lG/aJ30UQe5S6fs62EIdRrPfVDKXTR/nhzEbxFluxQuXmeTsL4t52v8dQPu/Jib4sTRh6GEXNO3E29zpVURvsH0yT0/0lP/aQrkJ2ZQDe68yaHKY8vYHiMJLzaUz+DAdkw+ABzfV4mmOH9rKOthdNeXwb0KQ9X0uL8CzITRH/09zpMk50ea3+pFo4OrAH+rKe/zzOr1RpfjK1kxMat3mvR2JeDvdFcya/aEipY2SCc4an3WaQl35Cdw6B/jfAZOsUpzB8d7K2K/HE4+UtP/U+rxxSU6HZc8HlPfRfBCQwok33EAHbne07P/D5zhEQx6uOznC0uyNpag+iPpB9iKk5chrTExdDE4GJRadi7t1OXYy25H6F4FdRnYp6ToAk3zGMsWXVvwHiqAxJIbiRxOVtcm4p2YVzOY0QguDmdtySNTURg7hfNj1WPPoyzpGeRDKQg7YTgnDzmcqwlP8fJsE/s1PwEmPbUU9WTD6Es4QvsJAScRcFFbPX6KfMoS4eOEJ8wixDJ7vcM9dR5jCXbROsw6BIvjIhg6W9K5S3Fln0oJDJATFXdOsva8v62GJEapySiAmYNWaroMqQlRhdN2+NV1kArObzGWUtwwY6lwKxbuYjrQ31RAkkYk7/U+pWamTOyKVJA2at1ZHa/2a+v7lM/hcUSjzrYG4+nu0wNi/pmR8f5OeKuZRPLZltsy+REXM0KAMNfcoQsFOu0ZULqzKl6vnoPbBMcvYfJr2junQlLim8zCUelgVg0eWrwXsclMSdf1kTNeu4i8Cta/W5sk21gTtBVswLrziLn1Ef0iLoEUMga4/8prX7PhN2Gh54tfEyzh7sC2eSmMI4J6OXvx2Wz2a3ILDISIfi4hsFlFPnZ44BPavUHhgDhMDdK96s/M3PRYz+cELaXeXQ3C+K359n4zAKI/f+8dfOK8KRJ5k3W47T6woyBBP6Fw4Mw+Gt9PrxEZGVnh5n9Z48bhAtjvBZfTGhzd0KUjfn+Gy09FYvO4X+3EG6PJ3g3BG5kgPfr/+ACxFW2rAj3Vf9HPWW5JRwjM6++6Kn/xILQ0d0G4WP0lI6yS46xi0SlgOnI97DjRdOZu/kKL9zbDPuGwUsybATEmHZrYX9g31t+NMO2g1CwzrLKdM9JEjvYj3jRYG9/yKkgfufT7I3CoQz3jd7udM/EFL+aUe/yJHjTws6oL2bUL3m9LQZpQi/V3iZB1BX1bu+CkIAxjX42o96TYIrYmoM9xiOO2j6bs/qVpEzOP4VLAdsTJW/01AeSEsFRiFXI6PensXi679Xq1xNUK+T4iQQbEfx4hjh1XCJdMVcE6GxG/aaHyzDq92KJlBbf7qnfd+h4fxT0uzz1MZx4YrdCGDBdnKe/lFF/wA6buuRimj7uMdFs2bjTL/XUH7Iz4WyziW5LyP7vMurPPLucTLpZ+UqfKzH21C1R1ZYN181sxtcybHwTi7VnjhX1V15/vEXkkABhmvffZ9QXvHUUYea4eJke1nWfLB3Te3SsVx3Lzya5cOZ4Lt3N1ASbt62pZXnPwj2lauY7gVxYcu29Jl96EHw3Rno1+8v2TKfuoKwjk2w3webMt8NWG60Ne1O6YPKFfPGMQywahLlfX2L/x9tI+S/eAsPihDlgZ+Uco1FXUcEZIv02vTcx91O2EJFgZFlwQaqKxeYGUcNWs/kF227J2bw554xbaBFqzgZyuYldMJYC0Es9MBDp8DSLMRkgVa/ztJ4v9Cm5BCtsBWs3e+6wnhJJyFI8fgweh0p9imCSEUfYXj/SnwspGtGvRMotxRs8lVmfw6hbapUgqJhfW6pioyUf8WnlS5WOPAbR8mWqtZZ8hk0+N2CpvBmyUi/55vlThrv+xhm/uxF/1CIbtFnSVK2cRTTzJfmeRfwCTb5YlsLa9xSL88j4LcXSPDp5bLG8XgkqhaoI1xF5pmM+mkVmZYNLZ/kF5NHkUxvHkq9xSVOmE93DYz4+T2Nav4zoxIzI9uPKvE5eRnZldqcKjVYJhDSYTOFVDulqJvirHd60mGCvcVjbQIK+1nzPod7uyi+A/Va74kt719mpLDY68joltUrX1yr1bjxvN9TyZ5PMjVKSTORNUpTkbo5FSkxxYqdnwvumlPCmSXzKkeBERsGiVZjtRIyFGtT9ymtLlqMC5o2DQdo6z9p5C+08KJ0PkTQ26MNu9s4GrZuvIvsn5Cm2b7uMraPxIZixjEBidry82SiargHIUqzeAavLyn0KZ2z2XYH0zJJWOGGZbUt57gseKv6EnmOW3pVmjb07aSxV7lM4a0yQ7MFxSzEddlbORHRBT6Xhd0LBUQWbWI8XJDMlyMLhhS3tvZ7KXuDuyGTe56nc3kE02DK593tqwbJuJ+SengpcDUc7hAWxWZZgPebg4TJNcQcwrLPSWsISAzxm3ytJ5yI6NW3DrRZB6nFjOLsp5jZaebkR/bWGDlb9cJt6CNOLx3ubg3DV/b6kboea2UpXrycVP8Dw0i/JcsUr06nszBCptCHS8tS0VSlhK7uB+YBil26wmpV62W9V2l15btgN5Bf9tiAz18Lsypuxx0NAQ2TP+DALM0dcklEv2cUd2XFxckagesP1uEaGfWx2Z7iistxAz6pXpG7OLPtHWL30yBf3J/JaAg/R8IqIVKqlueYNnj1JTpsWRpnFebWZ12r7UNPmEKK5ym1pUx4lm99Fmykk0fGTYKYLs1Uv+l15pwtivnbzUN+QE9RgtOOyK1oPnPcqj9Yd9mOe9iop9DwTeEylTx/3lLj1TNU3IG4LJavRqDUbdbsrKvqL7yPfuJP+autWmLMAG6L9qI37Vo0y76VJtQy765cQC/soz8u3MdZlv4SEQCLf5gm69hOuUszO28GUS0udND5rG5sPE6mM+8CQarc69WK+7QNq8wlF9zLNvZ6bGYK5d5kWXueog+QYlAsI1a2oZTZMTpaDCEISHrJTs5gvukfzKvDFh7DfBJ2tr3y2zE1HxiC7gV9lAzWlzpsEytFVmSnnpaUbI1iPjzyeyLEI0fbwBg1A16dIJB4YoBtiup50ErXZdyg3mnSdARRmGJ9GfwZbhmfWcie64elcZJrmytvgKEVz2vYWHB1Y5L5vGyTawvY3F51UJ9vnmn5QbFXMZwZUsSkLpN2v771iIBt25nR+PZ/QZMvtmqhI7nRg5nPBeGP3Cmqxea5dNsilNXGhlwODPhJsVIzDtXKmIY8QgY62OoFgjhXy5jsSx3Hn5UtRRulOVMSrJXDhp6JtGDLz1VAdF5aQkLgQq05iLGGecIB8wepBn2GxMPsOyZxYUyYa6rWxFFWOrcJYedkhIFIGt82DIUbILMCXMXkDTj2cx2Wm4/c55sdz9QPOuBNyWctpZP1gb2kIaGp/BVW+Qm2vH5+uekOOAervWOV5lIwZtf17NoP++OKIQ588JuJMgr3MqRwSEdHbcLR1aYZdkAEwEZOpC+Tk1KI8apxEpm+N7SrlSMdSYTY8lTV+nNFh1anPMjpxtvECulX7cYqM8LH1cmb9wClXJ6bRCZcY4xn34d5Ow+h/puznKQbKluaGDGHVfLpBtcwXUPR8sZsRbGLNfgMNEuWfTeDZ716EMo7feLmBbDCaiafy11hMW8D9gqfnX2xHrBFulvyedw9iZ3aYxFzC2TdcvMXBrIU2aO6DWOUENXfxg/AkBal7nwwGvj2L2+DQXBa2yRFOY5WlgvgchL+ot7AnZ+UykUFQ5BeTvq07H7ZtHCcUhIG/h+2wOB4RDIBJb5g3vZC9qucgJoEzpSMwB7iEX96QKO+mWTfE+UBBmM4Zrg0pF3TeDJMe5dz1XHZGI723A0qN8orXXPJbE7kCotywackvNWKMvbRbkgM7Z90rRPeWL48SHpk1yI7KTVHqjnDF9neVGxopV8v6KIo96VkCp1Wb6tjUzHE842ZKjs/j1sXIqE9k1AmzYG4yX+Wpk7BzzbdofWqjJXGPiedjqEadybAyqocXOQaAumqetfoHT109jzJmh9W7xjQWnB/st8cyxczvtQmqcCm/Z7zcZXUdU2jXnKuUjL4+yc5k5B89fcOhrtpZSPX1xkMElVjUL4SJryRhu5sSoQrot8Tjm+Yej2CC2/oIqaUep85+Z8Ae77SkxF3aVojdOeOfi5+9Y7DO1NnBOVnWCQhUq8as6LOFxtkuThGw1wzuJMmwH7WLZTmVksuememeCYrILhmpnEasDda19XWsRZlO2wdknndgfnZtnnGy4F6N0UkfvazJ6z2bD/ty/VjpQ+olqMKlBJnZJlJ2xrh3WZ/9w8ZIvaOOezTZ6hjImw6mLDYVpvF3C2xB9qJcU7GKuV1zjwW0EAqjNn2lfDGhr+xhy8q9SH78s7SNJrDOadzy/mR8AfmToPwRrlN2BgiAbGXkV5iS1JIcZeXc3aOXOYjHIkcnVjNwISpB4QZDOD/iKvOHriWXod7SgRmJjoco+3Pckcx8w9krjiZ3hdEszFNuuFk6PB3xnC2t0x0JrbOAW73RhV4k0evQvRfCdO9zezF03UaIPZMvhSLwJt5nK61ZacjW5Gu5wsrG7Z6stC03TKvjrZ4Zz6byUuiAzQdtGY/kB/79wxyLQ+5LlZajM4fJfaMx1A8OaaG5mYbeXaokRsprs6AIMz6iNY9Km1/TArkW9O54Gu2Ppy7rRRwyHBxrXVLZrltubHOO6hsxYEWtyldiozAeubKsq1bARO5zZppW+urNWrZZjAjU/UB2YhRuk40w2CIYKs4/zbnWI/WaDM5bYnsSPwF9n0V6VcvnHGyCxbotj95wvZrU3uQIHv/8ZXHMfmMae21G6VF4Mcl4l/WxJH3MAMWjAcNYBlHZUlZG9fDioSEwqH7SuddlcNLj89xUzLZcxwjXxcoMTSjCdS4XSc60og83G3cvmOND76KYTwqdNb/jUW/KqJwod9FKqJeJ5sXPCaxbJPPstY5ouXymTT6IaxyqjfXs40h8w/rzc980XVIZ+TpZhYOhWbE8QUULckqr1Sptm/Hmq2I7zUUqfdg3XBiYPHjZYe7lgSGG0/3YikwmkEkkECU/YEA9o7mZ0cNeNI2Fw3JXr2fxL0cHsOG65c0ZzHGKfRbxROkS/pnNeXmJRbbCGeAB1NiLDH2ipMms2N8iIZGXNy09ukJHg6RHjqnrRKTemtHznTS2gxDYzApxBRFzW5W5tCwV7haVkvkixJnRi5RxQLc/eCRCwbJibJlwDCM2r23z3ro4sLNzvHiV4qRx/0vYqyLbgC5zZzrdDHtTlhQ99SVQYWIOqkB4OMnpDhsHjUqHvFsiWqbPTCdGMGFKTz3nOxBH4wZKvQBVFPtuXcKcGG1j3F+O1u3Rz1C9IqMWE6Hl3nNpvElDFxinWtTL/ZANJaxbnkfQWdTYWOBIvTKjV+wUx1aXu5+MfAJm3kZG6tUZfYymJvR2RR03axbTlK3Cogkn5vDNK9hJqt8vjqIjidmXZGYxfaf2yc2EhohxRl+1lVqlt2fU1Rfm1uMd+Iao58aEwAJzd6180GkVNy1gtREira5LmY7YBHENhG84ZYGdyXhDRt0g2SCZxTdm1I3JouTNoSRgoW7a5nYwaozaELu6Wt28m6z/OzPqloAZ5sTe29+99yA0MeLIOYdiNZgAnMJ91BSlEYTrUjIiT28OWUATAXDqhIDYxlqhnUeIrExYb0N652LCS4Oo2WOlRJD0FHwr3OsRuBzt2NAuS4InBN5kM1MgWdRFlaWhgvhuORcWXuTYzXq2EBjmsx+AbUPNWPb2TeXFCFRHPqmBE1abxZVRwVkXqCArBxGNSwUgRPsbc2bvCabjfZwtWCS7pxuhnlMcJJmywmTc62/Bk4D7XPHW/LS9F5sypamJeh/2bj9mrH4jgy2J5bWZRtsYvHo/ylaDMUNR3sOESvQ53ZSH2BrA3CO6RVWv8HSWqXBaH6l3ZXTOLK96qdYLAhV6ERpijehDJUDdGzpdXextbdGAyqqlSEIhQRIeXI7zbenIc9SROF8c0++RRT9PrZgfBNOpnDpqQCdOnPNMdjXx14/bhpu9S0MmEsSJaE6IzS1IRp9MDS2R1/dk1KltOK27sMKiuspwryAFSD1G8lLjYBoN+qE/2hpiZziGimVmaa82hE0mFTt6v7pmEBU5OqPFQwz6sDPqjwNu88+rD2b0dQbVClOo6zfjVY/UBzL6hkm4ZRU2CF90EKLxLoq1qG407RTwq7Z2A/Nb51U6bId+kynzOSUSgJN5e5mnbt4fE2+6NNrKG7EhpKZuSX7kxzVCaBxD+QrSQ/CCppfkyUjFXg5U6RIjeFhpsL1d3D2Q49VKatYwyNru7QsSKzO/4q9TjKBg742bYaYia2G33jmbq0TGlLJQtLCwJdyjvPkFBnPa3mX2BEUTi5uc9mX6kYXyAOM72dq9RBN6af9y3PKViOPxHdm/Mn5FxheLC5dcDCEeISytBRMRZ4xuHiL1IXZvyRakPSHLbgrUNC3U5znk9q+EXWjFb23MSinPfYG81CUxf2FBxX+GRyekJRFSjxMrcNkeqPQkLjR8PoJVSAccDJJgIvcnfr4OM7VabeTbpJrreXvB6+WrFfPHxWyEHUA+ZNHyA/cHi3I1cz+wkL6nWowbaYX2Dc2ssYVv3FjShuWaS3NdiLnmRzY0zCbwINdGK8rbZsVcDh+S+GMvkmBa1vgaFv8ClQsf2J9gepB9i/oU5m/PXfaoz4i74Z7XWMy7Cb36SZUkyKROyROD5K7C/dUXm5W/ASHf/7d/J8GGY839ifsTVKWKrCRQ1r+3k6/KTOfqDe5yJEdmgdsb+ZtWZsoWk0yXy46YZGmtJX9VrmUKyC+n82nCI/bDzStmio/SCskxO/mVVenNcWrV7Z/9OEF/uzVuj7vVRuOMuY46ORs6chYmmWQePombO0PnJzsHEj4xAapE7mrx7Jq4DStlo/nQzGQTGrY/g4/UpzOztwAiR7jopkRCc7oPwgjWx6hOu/PS9nH2vrhqwB0VSkbtgdgdPbIWh6167mozoRcm69IOwdbkgvzzh/piCXxKxfvZgz+SCvMLKRozMnvJw5UqNgxXyg2ODUqLVLTkBZx6gftIiCp02m0rO1y8yMVVNt/iJq/qAz6sbsNid8p9mLnFIXN3Wy75AJ7jvldkRa8cG4uWBOxZZPN3lII4czuZdpy5g0wnztxJZj3OyKdYN+KMfI71rGRMnO7caoMbAYHuk482Fcxnsb9Z/vqR7cDza1wwSGTPXkN8i+lm1/1Rvfs34j/mxyWkXzxDyA/Yk2/jOIpMza93Km1f3uzkYjhFuxDj5FmMzNxio+laXiJOiBYEge3TckxxhCsxoowWuxL4+VaxbJkdTV8xyt8vtEM8HjQr9WRBTtgoJNBJxkJyiqSZr5s/EHWVXIVZZle3W74vPQO+hoNwoWHx18roSK+TexWLul4GQXqDpLZfN5reymlKtO4mmhBywJuFLektkjpWD8k35QIlXvOHzt3UPLyYj2fkEW5SH4mJ7dTqyRo+qiTfJ4+N16NLXKA6+DGlirxGahhz8NjS7NNVj/NrzXI+qATAj1/1zQn/CauVtU5L2nziml/3W+bL90+Kx/BkaQ75AXxKpSbJU7mb95Fq09I3ufHdKqmbttvY72Sib6/5VsTuwF4J/7tk86Ej8Yif1jJ/L+4ekri5pwNLi6beMwICy6bpZ2KZWX97Jfos8xcAkuyzaUSafa783RnS57XZp+xyIBMNsdeAhUJe/mgdUJFVbVZ9mRFrL0tOziv1VRE0n+Ox8FsVFSBFGNdsfytW6oBO5wl3S+Nnqg3pX7WWb93bMStcs9fzQHCsmRYbhrpUyVviZgLdWzv0otTT/ahflMf75gsX5s+HmlOWtash5kqM2VcwZukiHzxmzHwAUYzYtuBxKk0spTbGoxlwhjnscmaKsqE23fNRgpv2s2Zq9lkzMrrEaVL2gnniTNVfy5u/OHWFr6GR8+TaWt4Kq2psG2eWUM/sjIfZI8kgk3YrLYuhy5Vv59+FsnBaLN/Jv0vlu/h3uXw3/x4px9KykojK0cSeHWNDR8wCwONCc6Is2JOIHsmpOR27yjw+uboj/16DPHRIr63Kh/avKwnu+lKbf28oiZbcmGjJTUAz5bzZSckteAMkD5FHQA81avCwRHofHtTyRoMfIb16JFemwudR9/LPo0urUvsx+UJBuvlY9xTgcUa4Ht+SATzBPS16oogT6ZPkD6uSPpltnuQpgf1zqk89Y//EAppCcis6QnKbDOZ2Qdwhg7sTMZVd6a6C+XMCdxdKsjJPC7CDpPeYLjx9wyTPaFaKbTvgZwaNTst8vuhZ1gI822nIc6r5grGfz43/WOjzEnubt+85gArSfzEPwEXMfLx4JWA7h5iJs+iiL6NcbXTaltdavBEAl2NTUlmVP2dqv9R4Ghm072bOFK/4eFpl3JarzPvJ9uzPDGkDCEZKQHj/B2YbAACdmQt4lNW19/c7kwyXcBeaoIAR0AaFBCggQmYClETES60V74OggKVFQJjgpQURkhk0UdFWrQiKCSKi8olSCpOLIOCNUkmAGuUiUPVMuKifFY6P1vL9/vt9k7zn+c73nZ6T55nsNXutvdZ/rb322pdxnIAJmnaPr3ns5WD7h50td5c5pnWHGdOm33btZXNGj71uyJWjL592ze3zbrxizu3mLNPVON3MOU5Pk5bmGBMwaU762Fm3F985dWbMhJzW9xtj2phOpiZgjGOsanOeSQukXz35jqnZg1pE2qnhzzZW/iyRHZ27GTj9sXSNdBjZPn307Nkzpt8+eWYse9r0GTPmZk+fmT1t1pw7s6+4ZnT2sKGis2O/nJo9Y/LMKdlzpt4xfW5szuTY9Fkzs3PumDpz6pzJM/qpu3iG7ZxrupUYMyob1X1MDhYXmn6XzYxNnWOunDplevGdxlzo/L8Mts1u/vuPttv+i7azXRUmMCnrv/7LtH8Q7l/P/9ZfMDgos1sp8fzPnbRfBnhfXnAWPvN098D7ziBzzr3r5/zSDMrq8/+Tl6AZ1NPG8X+iPm3J6hfOShhzdXq6U3pPY7gkKzolkFh63ZLgr7OisTTUHm7Fv4HpJtTdOCXfrnszXpTZPZB45NY/BUuLMrul4ddCSXyV3j00GInZ53ZB4rFAYva2o8G4McN9OgaHrjJOfE32pYlVZWmB+LgJW4LxgHnNJ3FV6BYk+j51BolRgZJxz4eDiYDp6pO4JTTJhKKOCTShDWaJOwqAC7Ki04zjBEpvmrHWz3FCC4zJFyf+7J40PyfgcQKBeIe7hvg5wdBv59X9YJxgIL5wWZGfk+ZxcOCrbTf4OemhBQOTvY2THohPmlri54RCCybG+hgnFIjvzn3Nz2kVWhCrG2ScVoH4mPxDfk7r0PyByd8ap3Ug/nr4Oz+nTWh+fWFH47RhovaE/Jy2ofnz6u4V6sT4jV39nAwPdSCQCOzs6ee0a+EkP7nAz2nvcdoGEnO+yfNzOijWXYQt0b90rJ/T0cMGgk8vucrP6eRpCwUSy6+63s/p7MUAbddOmOnndPG04Wm7tvf4OWd5nmYEEts7lfo5XYVtiHHaBRK/vWy5n9MtNH9i7EHjtA8khr31HzLkRxqz3SL4YsQuPyfTQ9A60JT7TZzuzZzSiWtDfs7ZLZzI/AF+zjktnOyrr/VzerRwTJ/f+Dk9WzhHTz3v5/Rq4Wx/910/59wWzqpnvvRzsps58bEXZ/g557VwNqzs5ef09jgdAvG+bQdbTqbWvUnvE1qQTGUbp2MgPureu/2cvqEF5bnjDes0flPOO37O+Yo165RYJ7/v4Odc4NnpFEiMW+wi8Dg/1vopNE7nQGLv+4V+To44YattSpcZluOh7udpI3d6vFPs51zYkjt7dy3ycy4SNjd3ykPL/Jz+Xu5gZ+z9a/ycAZ6dVoHEP37yup+T663gLoHEhle2+Dl5ig52zgokZuz/0M8ZqBrSX6uxqZIGe7qcwd76SQ+UDN5xk5/zE8XAVpfS+06l+TlDvJXVNVB6S6fJfs5QeTpK/pRG3tjq5wzz/GkXKO0VT/k5F3sxOIuauKqjnzPcQ92Nmrgv38+5xKuw1NHb5mp+mjkjPH/aBuL1yxf4OSOFjeqimlj7op+T70W0HTn65jY/J+xho/b2vfKwnxPxosP8jM/QOm3mFHjaqFWBdl39nFEeNjKkOrunnzNa2Jg5qljsxiF+zhgv1mRI/0mX+zk/9SL6I2pi1wl+ztjQ/GRqkeKWWH7yNj+n0IsbGXJt9X1+TpEXaxC0m/CYn3Oph4Axb9+8xs8Z540hrxd8U+vnXNYct8Swkbv8nPFe3NgXvjj3b37O5V50MgOJ1UNO+DlXeP4Qg4l3fefnXOnFgJnz9v8mzlUeArIqa9Ftfs7PPNRk1UNvPOrnXO1FJysQ/+7qN/2cn2t+Bgp1fEbvk37ONR5qMuTA5Wf8nF94npIhqx/q5udc25IhE8v6+DkTPG1kSNbK/n7OdULgZsjuhp/6Odd788N+uuSTm/ycGzSGjCduo2bP8nNu9OIG59u+9/o5NzVzms5LTZxbmjmJ8Qvb+DnRFk5g6Fl+zsQWTnVjDz/nVpfTuk0bx7FnyaaDpQncH6sbGuy6d/HRd74N9p82fPelP1rw/fGVwY6hy9JMeqqVaetcNSs2K/sXkzlt/+LeO2+bNWPuYHONPYLPMaYddxZdLNJMK9PaaKv4V760dzrcz12n4ySzOJ7xekn8N0+Vrvr2wtL45T8rnfbs3NJxR96Pdx3ROR6/tCB+etzN8Wmvz4w33P1QfNzzy+Ob3l8Xz/lmS3xZt2Pxtvf/kIjsbZU4/XGvxLpHcxLTnhya6PXBFYmGS29OLN0yXydgs6jtU8MW67P0aF0Jbcmf80tKoEtztncs5XvpienRUvriix5uFV+ef318Y8a6+O6zdyVO722fKOkxJJFfF0588+H4xCudbktMeXB2okfkvsTejUsSj3z2nA7QMtAbA1+WjHNeK41XDi+dNu/W0nGXPFmas/yrePz4j+Onu46ITxt2e7zh4vvj43Y8E9/0yDvxnKV/iy/bfCoR79YlEenRL3F69+DEupdGJabdc0OiV+dZiYbMeGLpa8sT4/59bcIc2JLY9NV7idkDGjCWubEkfnnvknFbD5fGg1eUTrtudum4xndKc06cicfZa04vHRWf9izhevOp+Lh+L+t4ziDc1we3O3M/dBY6zgOOWeSYxY4pcUypY+KOSThmiWMedFquF2anE9zlmL845hPkAuapgBNymD/uJ6aNyWi6dLj3zoeffut6e/V8qPix2vbu/fPs+ddNmNAz0Mucay5wSIDfHD1ypOkj0aD+cd11zI/NU47pYTo43R+gy95qzjf9TW6gVLfe5IHtbQJKH9NbF1+bwDMnz8j+2cwZ92b/dPLMeZPnmlATLhcObvJxYTRfgx8BRKj7A9yi85KdInSaQGPFznxaE8hLPh4pzx1RQM8elyiu618Ah7w1HV0iL7khkhXNEmu9SzTpkca+keK6xyKBZKpNQTNRlFkYQahvpJkQy5wIGqc89/HwxNjPawMiGisyCgL1hT+JNBPGHIsEsqL5lggW1xVG8pJfw74ecP+MBCfGpqMqraCyrATdbQqCWdHfR6Kx9gVZ0XW2DZbn7rZEXvJYJJlKKwg2VgT48i3j2zKsQUo7I74JPZ0BWuZ2NFaMjNQXtsWFU+FgXjJQUJ77q3BR5nGs1OTTsTtSWZZbXZVaZ9tgNPaEJeoLS9GzY2SwsuxXWEjmZ0VvAPHwMDiK6HgoLF+K614NE7yhLURzBEQYp7FCIQCKiKzoLagYSwQGCtsEOEFUzQPKvnCwvrCMjspwXrLCtsGizCpLRGM78eDDMEP2YyidIZ+CcXAE9Cfg3IrSE0hiRUR94YtY+pS2JgLYAxB74O7E7OEIVqqsuKyoxUqZJSbGilGKRFHmBMbv5TOWjloXel5yDTp+wqcsYvKMI1e9pBqKYnJJPtO6RDNLhNlKgqoXrsu2SSF2MwHHZdGSfHwYel4BcN9B2XnM77PhqtT5BaC7kwhdyPzeyQwMcjuKModbieK6fHdIY8VoZTj6RyuTeliCLZjwIaE50BC1VocIKZWEtaIhMisdtl1lE3wZ4kOqsXC7JfKSOSjemQ+Gg6C8LywM9YVnwizsUaAchVujQPlQxHZUpTbQsZLM2KeOwww5jfYLmSCymeudTe/GiqdtSyZutkRWtJ55aCXHjoPSwdPvMP+FdKQX1Bd+hFSIeNREWNgNOMa0a80rtY3ZjkOHImTxBjgnUbTMtuTSYktMjE2lPaIhPwXIPoYNpH1TEj3R/BIh64mXJJeI8tybsK04DogEq1JjkHAYMgVGfRjIi+l4njgssy0I11qismwjWDYpybeh/QNmaidDvgsDbC+gusBtQM/ASEDOiGBsOl6dIqDfw10p0RPY7cbYPcD+eT7KqgAzpLppYsymdK24XyNVWI34MEuQY2hOjQTdVkL+cX594aO0i8K4PBJlu8gWtT0Vg5Hk0pUgW0TnrxW21XSUov1TMvMRLY7OFJ8n8eFiHHtGdSsqdPiwCKkK6XgG7gt8XiawLypKSYiXkHqLIa9Kx3sAW0/newS2KhIQUZWqdjl5yb22t7iOSVHxq0p9wdjf2xaJuyyB/0ge1QIfDPFXIF+A1LvKgYVg36Oxq8B+Es4xcvEf6sgCVYgCWIR2SqwxMRC1J4d+Z1s6VlkiL7mRNkMl9j08a8M6+BjvyNLKsmMQ/wT7KT7H5e4Z7DYA+QxDNkfYbtTBaq4se7+FyEv+IUz1f9cSeLGN0VHSYhMDM5Qn6+D8Mj8aW0FH2YhgMlUORk2eO5ua1wegnlD9/YMlynPXyGIYvzah7SBObsG/DNW49wCZw5f3kLgswv6juC5RCN5mbCm4auEuVk7/kflcyJeXCdQCVdCVBPg+xJ9E6h51lBPtYr7EgTZXOmZAzEL8Gj7T1DEccZX2HIaOj5Bo3bF7CZ/u4OjhdhiTIpUvJpy1CsAEcDzBRLlOGV4cbU0trnsh8n8XREsQqAJWxyCMe0RxXaO21OGWYCYu1ygmLwaUkCrjo0BoT73wdtCizJ2WUJmPxqgoxpwGj1OQTBnqznGFQ+mxF4UhOtYLSojJBwEbkLS7RFHmy4ryh2hRhN9ByccC8CcGHkdsuW2x96AlhKix4m+SuJ5Y7ke8iI6dsidPq5FyXTe8qzpVqdVw8dEljgvFZ/k+opmVUWAczXxR5gAdMm4GmEcY01cIbyb+adifwiel1JkJ3PeQn4+5GnXEmbLX6XjUtiB8whKqYBQtlbTnmOUk2VaBruow6+sVLJeNRPuLcEaMoOirrcKZJwBwsEqZhrkqFss0gJjqaGy02nwypQfElvxoLB37U5UHB6k8f8T+Qbb59ioFrjdsgafZNVV/5SbTLYIIgIUINBPNLIWisWK/my4iiuvO0frdz7aTQ06k4Q47XWPFOeT6iAJBqiyLaFO5A4fHcDx60LaEZJklNB2VZWyf0dh6hoyiFv8JPwsKyLi1EP1UDFbjaD/yaSVhvVAdyxC9iIx53LY4/FtL1Bf+muhdIImbED2PITehgwOnCCC7mGmN+Y6tlsMaodwTgb2dge9rCW0lZNrVknQcUOHbAM5P+ayh45iSawUSXyKh0vGlpl+140u4V5B1n0nHANDsB8AAtJN+LlEDkjH4ukG1+jrQvMKXRXxWR8izdYxfrjq/j3G/40vKFgy0f4+pW1D4PYzz3I7KskOUoRPoWKq6dAjxNHJpO4zcfLSvpWNItdaFWiSGWKI892vm6zPtaHeTaQ+RC6MpFh21G3bHwrnS3gfRE4iNBu5b0j4J+3/AnLKNohqNVVoiGnsDp3aoYxuiX9OxDYTd5e42MkWHuM10FGqLfQ3t1wN3OconRQITYzcytljmMhBZjOjOsPY7xj7ASUa7+QMgfNftqEodxuQmTjR/l7KvmMAguZaD2dYFhOxGxNtTUMpty5DNlpgY24PioCROMkN/5+NOt3mVuVcCKiisp6mWIIGQ2JGP+BFMzsHllbQcHnSqKs+NgN93zGI9AWolHX/VtGnIaby8CNNsYFIqDLKiFlBbLZGXPESLhDH/IKlOAyjE2Qsd5bkdWA1/xKkOdGBFhMxKwsOhIQJ2yEUqpYIuK2p5FIouAyanmOK6NyyhrCiu26cj0T6IdCAeJE041StXdapXW1mGPRHukeIgcavS7OwDjY6F0vGJ6ugbiJ/E1jLbsmsttERjxa2uhPBqiA5uVocOPFKq1loRIbOSsDg0RMBcHSCVUkGXFbXmb5QobU2sWt8epSNJM1GV4trHD26WAPilzI0hnHeChh1I8cxLtmcH0nWE6TBmjSW08CrLbMdG3GpPTdExqn0BypKM/Vw+bqTn3+CuoyOl2V+N040YX2Fbq11EZdk8XDuiITdAfMTnUgC9L6eHYs7dgCrL1mqH0Y7kuUNrzPM2J90vttf6pv23mdD+S1n0NuLiusvIJEOa30WpCKnouQvAPbHgU3nudksUZX7oSnBGww1DndRiQJmuBiLYIQxiBvczSFFEk6luVG/F43zb4vVwSxgzlrLqaJu/GkXHiY1ae768Gi7oq1JDWojy3I0qeEMYVE/8BiBLnkRj5yOi++HZtqVDqk+gTUeC/crGHwC/k8D+QKReV9EQgVZuXi2Eigzz/Q5+7WbwZkwckr21iJzgy+9ty4yUWKK+cBYOc0aYGJsAsR8ThXx2KZxDGf8mnUMZ9sp/NkWjtfdVWpp9pJKawPVTRb2ZYEGGecBII1IegawrTGvMLs4dTV9srx3ZWPGqVQHsBktMjJ0iMoMV4zbE6yKC2Inp6aV9NBOVnenMJExn5Hom4geB3gmj25SdbeC8hKen+Dwj1xuYfaXGq7bFsc4tRD3Xd3JqjSXY3HRvqsH4XjTukLbPyeA/E4gviMx+dZyGe4yO08QeACKyonr4OMmQLip9nyHanfnei5meKn06hvcG1Yu2tZFqJoiEGwparuR5ycN0rRGmXngKT5cKWh3wKyBgNcmY5VzEdIBIpnpXk7HlYM+s1hMP4qqOlwBxZ355bhcQlqgm7qNs76MmrmZ15Qn7bKpMDPHZdLza1HGINfos56OAnNkBsG5gb4VUb1WS/mDPo0JPIjBDtaZUWvJxd61tGbLTEo0VnzGZw7T9nAFHHuuqFZPYVxIdEc/CvS6ErY1OJycIWRslwOfMUzfm+6909FDsdqCkL+I6DDFWR3kRyl+ezbUuc4Crg/WPsbJVy1Cld6vK0ihWTx1ityBxQJlwD1r/jc/DfE5q0T2HV9/gyOu2JZv2WEI1Xc8/BDWI7b04lEGt3KSr6lkk3woUqp3rdhjTH9gZBOVTnQeCoJtMpBsxvUGPX39GPLe6aaa0BF5A4xodTKssYcyfAVEfJgAHCO8PbHGfA6C31H8F1kIUqL3L7ciKPoL450BdqZWs7Wo9epSm1dpQqpF4G4nVtgXAk5ZIppagdIt0zEM0icLJWPtfKn9XwlnFFx2hn1RktPiX4NVQFM92O6pSRXwZR5b1UXR1KDvDCl6A+T065C+Fu4ZEcp0zm6joeclnMUt2FmXea4nKsjEoXpjP+HaYvBDXGzg6rdcG/RRnoBBSetgao0PpMCTGCO4IiC6gm0wcPlciL7YmpF0ttjdYIi+5He27wwRlH8S3HEoOobCXdKRwdzTjU3xmuh16a3APE8+pZu7FkfV8ttFRJQllxduEbjnmiWM0VmYJXbSyojaO16AsSZTCgOMeV5T5Khg2afXqRYvapneWZsIu+uK6KMIQeiAw5oAcHW8JYjIJfZr5RcAgQfU6m5f8BvmXbEsYtbi+gfsZkiRoea4h7XSVbEVrE1SLazmYOrLimDl1ZNlreisy9hMF65+Mv5kFfgSp9fl0bCdIvXloe9a2/8o12frEmQusHqF8Z0saaQmieRUsbbV308GGWlznXpOzoq/ZFld2WaKy7CiucEgpz/0WXA6rKUBZOK5q1BruXqy3ZnkTXhEAUL38iF6PsNdkEcV179lPXpJrspvfx/novnJccXjIEkp+e03WU7OuyUpr6qS7BWoFqZXr5hgZnEwtZ7I5J+sKJ6Kx4iKktmhdH6aUziQmnNHINUzqOTIfro7HDwqDOjbQ4T1HaojOHCQ+85GmcjrFBqEo82nbIuGGpyr1NkgpiVxVQZfOXH5Bx3fujCvE9YV6uPtAfuhhfgPg1D6i5BMxT9eqj0HoEXp14hDxCWhWqWp8gp3NxOqvdHBEM+YvfPkYaLVo+lTxWgfnC6Seti0diyxRlboNyaNKxtFA+xBYubTslrp464ysNpl6Vkh6oHCBy3HzfSCcXjI3Fg++pFrcwRCuUY0VpczkCmrBCtuSQa9YQiccsOgqpqW3hY4PsECl1XGBH4IYfxDlvfQopkTJENR0Eq2aFP8eidkqLseZ67p8FXgeDfRKWYWSIdVN02t/WynKfBhT/DxRWXadJXTj5OaqO9FHTJx+0VjB1J6S7TEAGUkwxtBZpoQfw9a5CTAriHmDOj5m8r9FT29cZq71LKOpjcYeti0YXrREfeGfsMJc6xynX2coYTj0T+loAO7XdB7Ej2MqMEdaCLv0tDM1EywJQ9CPIuMR3i8mBy1h9bFhg/wD9A7XY+/bdCTzeYRBYsdIOlaDOJfLsxsKBeVpZpcfSirLXrMEcwDcfdq96ugIEtiPMDhQk3qUYN7Cl6MwCIoI6jJfPkJbrTZY7cd7Gb+VjsPy8DUkTtDxtG2xstASqoW83mtlF5Ape4h0Li2HtMqyXhAvMr4XirEiQleq+sI8OrlSse7wJh09k+jkJx09JQi6rKg1L3Jy0k8API/WsuZmW0I/JfC8V4tjnYnKiFqOcuRjz1pm6iXcNrWYQ0dNDXWuD+gm1SA6AGJpjbaAxoo3alieV9HRUKMftCbG/ncN+Bczy+m1uqSqZchmS9QX7gLuX2pIriNkyOM1apm3albpEZTt1CvYIUswRiFeQ+5p4u7RJfFtlJwHqo1E5i1Vo9URfM7XxKklCDdYgoqOdz21fg4A/uFwJYe7+sKgYq+UHcX4MegpdzvqCzczbAWSH6njY7bQfyWHozEvh/VOqRzWfcTmsLJDOaxzpU1dpWUzwXLVlpihdesSnHb0KKF72BrCqvNXoJaw6tw9sFaZRMGuJZNqMBilw51FN1E5tLuJKkKJmpf8StGrw4UOzMdHkcaKi5UgR5GYDIyjoH/Y7dCtQep1C0K9hvy3E1VvLkpUnj0l0YsQrGF8L9eKCGOmRNxEHSGzo1DYGT2TMP13N1EFXVbUmgbHOBQuJm2ZQlnHdBxCXGendtot9EtaDjErpmO0isArlgC/HlSHE9bfoYg3Qp3mjOlFNBcAuYM2ljux+QNgbkeS04cekvQrilrPnIiJfH6FQ+ny8DeMHULS6Krx77pzLIOzr0Zmk6mza5nAYktYZOyYcNoxZEoYZXVsQf3R7jpjPSMd0Y4pEeLqZ1orrmd/jectwipE8/kcD63mJSyDkzVUzTA/GtWQK58RlduqeQREx6gwHd3w+SBV7lziPihCTvZDa4wv/VxzIrRj6bcaY77WdLfCtg5Ke6nz3HNYrRBDiez5tERWQETAuYYw5VB059HBJAi7ZkWttNvjk7Z77W2sZRHktjG62XsEy1wXOu29HmFvzBykLcFsvQ/r6rBOD/aM1ljxHNOeqirPVdbZV+/xlijKPI8ALdJ6/yrsVoQtBJj90j2mhQD5eLi+8HK9dnivKjrgNBM6BhGyoYT7XGZnAr7w1qbnSUW4uO53tqWj0hLlua9rynXP0ePbN9jcievdlR37wDwcHfvQfgf0/wE=(/figma)--&gt;&quot;&gt;&lt;/span&gt;&lt;span style=&quot;&quot;&gt;Applicant fills LRA 12&amp;nbsp;&amp;nbsp;&lt;br&gt;    &lt;/span&gt;" style="rounded=0;whiteSpace=wrap;html=1;fillColor=#F6EFDA;strokeColor=#c5bfae;" parent="AShQ6hyLjzl0emwVlIt_-1" vertex="1">
          <mxGeometry x="290" y="166.185" width="160" height="114.5" as="geometry" />
        </mxCell>
        <mxCell id="AShQ6hyLjzl0emwVlIt_-3" value="" style="ellipse;whiteSpace=wrap;html=1;aspect=fixed;fillColor=#e51400;fontColor=#ffffff;strokeColor=none;" parent="AShQ6hyLjzl0emwVlIt_-1" vertex="1">
          <mxGeometry x="600" y="362" width="55.75" height="55.75" as="geometry" />
        </mxCell>
        <mxCell id="AShQ6hyLjzl0emwVlIt_-4" style="edgeStyle=orthogonalEdgeStyle;rounded=0;orthogonalLoop=1;jettySize=auto;html=1;exitX=0;exitY=0;exitDx=160;exitDy=60.41;exitPerimeter=0;entryX=0.5;entryY=0;entryDx=0;entryDy=0;fillColor=#ffe6cc;strokeColor=#d79b00;dashed=1;" parent="AShQ6hyLjzl0emwVlIt_-1" source="AShQ6hyLjzl0emwVlIt_-5" target="AShQ6hyLjzl0emwVlIt_-2" edge="1">
          <mxGeometry relative="1" as="geometry" />
        </mxCell>
        <mxCell id="AShQ6hyLjzl0emwVlIt_-5" value="&lt;blockquote style=&quot;margin: 0 0 0 40px; border: none; padding: 0px;&quot;&gt;&lt;/blockquote&gt;&lt;blockquote style=&quot;margin: 0 0 0 40px; border: none; padding: 0px;&quot;&gt;&lt;/blockquote&gt;&lt;span style=&quot;background-color: initial;&quot;&gt;&lt;div style=&quot;&quot;&gt;&lt;span style=&quot;background-color: initial;&quot;&gt;- Copy of title&lt;/span&gt;&lt;br&gt;&lt;/div&gt;&lt;div style=&quot;&quot;&gt;- Document to support grant of easement&lt;/div&gt;&lt;/span&gt;" style="shape=note;whiteSpace=wrap;html=1;backgroundOutline=1;darkOpacity=0.05;size=17;align=left;fillColor=#e1d5e7;strokeColor=#9673a6;opacity=50;" parent="AShQ6hyLjzl0emwVlIt_-1" vertex="1">
          <mxGeometry x="110" y="16.18" width="160" height="103.82" as="geometry" />
        </mxCell>
        <mxCell id="AShQ6hyLjzl0emwVlIt_-6" value="&lt;font style=&quot;font-size: 15px;&quot; color=&quot;#ffffff&quot;&gt;Start&lt;/font&gt;" style="ellipse;whiteSpace=wrap;html=1;aspect=fixed;fillColor=#008a00;strokeColor=#005700;fontColor=#ffffff;" parent="AShQ6hyLjzl0emwVlIt_-1" vertex="1">
          <mxGeometry x="110" y="182.31" width="82.25" height="82.25" as="geometry" />
        </mxCell>
        <mxCell id="AShQ6hyLjzl0emwVlIt_-7" style="edgeStyle=orthogonalEdgeStyle;rounded=0;orthogonalLoop=1;jettySize=auto;html=1;entryX=0;entryY=0.5;entryDx=0;entryDy=0;strokeColor=#d79b00;fillColor=#ffe6cc;strokeWidth=2;" parent="AShQ6hyLjzl0emwVlIt_-1" source="AShQ6hyLjzl0emwVlIt_-6" target="AShQ6hyLjzl0emwVlIt_-2" edge="1">
          <mxGeometry relative="1" as="geometry" />
        </mxCell>
        <mxCell id="AShQ6hyLjzl0emwVlIt_-8" value="Not Paid" style="edgeStyle=orthogonalEdgeStyle;rounded=0;orthogonalLoop=1;jettySize=auto;html=1;entryX=0;entryY=0.5;entryDx=0;entryDy=0;fillColor=#fff2cc;strokeColor=#d6b656;strokeWidth=2;" parent="AShQ6hyLjzl0emwVlIt_-1" source="AShQ6hyLjzl0emwVlIt_-9" target="AShQ6hyLjzl0emwVlIt_-3" edge="1">
          <mxGeometry relative="1" as="geometry" />
        </mxCell>
        <mxCell id="AShQ6hyLjzl0emwVlIt_-9" value="&lt;font style=&quot;font-size: 13px;&quot; color=&quot;#ffffff&quot;&gt;&lt;span style=&quot;&quot;&gt;Facilitation Fee&lt;br&gt;(to be confirmed)&lt;br&gt;&lt;/span&gt;&lt;/font&gt;" style="strokeWidth=2;html=1;shape=mxgraph.flowchart.decision;whiteSpace=wrap;fillColor=#008a00;strokeColor=#005700;fontColor=#ffffff;" parent="AShQ6hyLjzl0emwVlIt_-1" vertex="1">
          <mxGeometry x="307.5" y="320.995" width="125" height="137" as="geometry" />
        </mxCell>
        <mxCell id="AShQ6hyLjzl0emwVlIt_-10" style="edgeStyle=orthogonalEdgeStyle;rounded=0;orthogonalLoop=1;jettySize=auto;html=1;entryX=0.5;entryY=0;entryDx=0;entryDy=0;entryPerimeter=0;strokeWidth=2;fillColor=#ffe6cc;strokeColor=#d79b00;" parent="AShQ6hyLjzl0emwVlIt_-1" source="AShQ6hyLjzl0emwVlIt_-2" target="AShQ6hyLjzl0emwVlIt_-9" edge="1">
          <mxGeometry relative="1" as="geometry" />
        </mxCell>
        <mxCell id="AShQ6hyLjzl0emwVlIt_-13" value="" style="ellipse;whiteSpace=wrap;html=1;aspect=fixed;fillColor=#e51400;fontColor=#ffffff;strokeColor=none;" parent="AShQ6hyLjzl0emwVlIt_-1" vertex="1">
          <mxGeometry x="2540" y="361.62" width="55.75" height="55.75" as="geometry" />
        </mxCell>
        <mxCell id="AShQ6hyLjzl0emwVlIt_-14" style="edgeStyle=orthogonalEdgeStyle;rounded=0;orthogonalLoop=1;jettySize=auto;html=1;entryX=0.5;entryY=0;entryDx=0;entryDy=0;dashed=1;dashPattern=12 12;fillColor=#fff2cc;strokeColor=#d6b656;endArrow=none;endFill=0;startArrow=blockThin;startFill=1;" parent="AShQ6hyLjzl0emwVlIt_-1" source="AShQ6hyLjzl0emwVlIt_-15" target="AShQ6hyLjzl0emwVlIt_-13" edge="1">
          <mxGeometry relative="1" as="geometry" />
        </mxCell>
        <mxCell id="AShQ6hyLjzl0emwVlIt_-15" value="&lt;blockquote style=&quot;margin: 0 0 0 40px; border: none; padding: 0px;&quot;&gt;&lt;/blockquote&gt;&lt;span style=&quot;background-color: initial;&quot;&gt;Output&lt;/span&gt;&lt;ul&gt;&lt;li&gt;LRA 12&lt;/li&gt;&lt;li&gt;Title&lt;/li&gt;&lt;/ul&gt;&lt;blockquote style=&quot;margin: 0 0 0 40px; border: none; padding: 0px;&quot;&gt;&lt;/blockquote&gt;&lt;blockquote style=&quot;margin: 0 0 0 40px; border: none; padding: 0px;&quot;&gt;&lt;/blockquote&gt;&lt;blockquote style=&quot;margin: 0 0 0 40px; border: none; padding: 0px;&quot;&gt;&lt;/blockquote&gt;&lt;blockquote style=&quot;margin: 0 0 0 40px; border: none; padding: 0px;&quot;&gt;&lt;/blockquote&gt;" style="shape=note;whiteSpace=wrap;html=1;backgroundOutline=1;darkOpacity=0.05;fillColor=#d0cee2;strokeColor=#56517e;strokeWidth=1;size=20;align=left;opacity=50;" parent="AShQ6hyLjzl0emwVlIt_-1" vertex="1">
          <mxGeometry x="2350" y="219.55" width="100" height="120.45" as="geometry" />
        </mxCell>
        <mxCell id="oRjPjbLWCinS1bJcCdLX-11" value="&lt;b id=&quot;docs-internal-guid-e3f8bef9-7fff-8bde-743b-a0e1acd5e658&quot; style=&quot;font-weight:normal;&quot;&gt;&lt;span style=&quot;font-size: 11pt; font-family: &amp;quot;Times New Roman&amp;quot;; color: rgb(0, 0, 0); background-color: transparent; font-weight: 400; font-style: normal; font-variant: normal; text-decoration: none; vertical-align: baseline;&quot;&gt;If leasehold, the grantor must be the lessee of the property.&lt;br&gt;&lt;/span&gt;&lt;/b&gt;" style="text;html=1;strokeColor=none;fillColor=none;align=center;verticalAlign=middle;whiteSpace=wrap;rounded=0;" vertex="1" parent="AShQ6hyLjzl0emwVlIt_-1">
          <mxGeometry x="530" y="176.31" width="200" height="94.25" as="geometry" />
        </mxCell>
        <mxCell id="oRjPjbLWCinS1bJcCdLX-13" value="" style="shape=curlyBracket;whiteSpace=wrap;html=1;rounded=1;labelPosition=left;verticalLabelPosition=middle;align=right;verticalAlign=middle;" vertex="1" parent="AShQ6hyLjzl0emwVlIt_-1">
          <mxGeometry x="510" y="160.69" width="20" height="120" as="geometry" />
        </mxCell>
        <mxCell id="oRjPjbLWCinS1bJcCdLX-28" value="" style="edgeStyle=orthogonalEdgeStyle;rounded=0;orthogonalLoop=1;jettySize=auto;html=1;" edge="1" parent="AShQ6hyLjzl0emwVlIt_-1" source="oRjPjbLWCinS1bJcCdLX-20" target="oRjPjbLWCinS1bJcCdLX-27">
          <mxGeometry relative="1" as="geometry" />
        </mxCell>
        <mxCell id="oRjPjbLWCinS1bJcCdLX-20" value="&lt;span style=&quot;&quot;&gt;&lt;span style=&quot;font-size: 13px;&quot;&gt;Receives Invoice&lt;/span&gt;&lt;br&gt;    &lt;/span&gt;" style="rounded=0;whiteSpace=wrap;html=1;fillColor=#F6EFDA;strokeColor=#fcd19c;" vertex="1" parent="AShQ6hyLjzl0emwVlIt_-1">
          <mxGeometry x="820" y="168.94" width="150" height="109" as="geometry" />
        </mxCell>
        <mxCell id="oRjPjbLWCinS1bJcCdLX-30" value="Not Paid" style="edgeStyle=orthogonalEdgeStyle;rounded=0;orthogonalLoop=1;jettySize=auto;html=1;" edge="1" parent="AShQ6hyLjzl0emwVlIt_-1" source="oRjPjbLWCinS1bJcCdLX-27">
          <mxGeometry relative="1" as="geometry">
            <mxPoint x="1360.50000888889" y="223.4666666666667" as="targetPoint" />
          </mxGeometry>
        </mxCell>
        <mxCell id="oRjPjbLWCinS1bJcCdLX-27" value="Pay Invoice" style="rhombus;whiteSpace=wrap;html=1;fillColor=#F6EFDA;strokeColor=#fcd19c;rounded=0;" vertex="1" parent="AShQ6hyLjzl0emwVlIt_-1">
          <mxGeometry x="1072.5" y="171.72" width="105" height="103.44" as="geometry" />
        </mxCell>
        <mxCell id="oRjPjbLWCinS1bJcCdLX-31" value="" style="ellipse;whiteSpace=wrap;html=1;aspect=fixed;fillColor=#e51400;fontColor=#ffffff;strokeColor=none;" vertex="1" parent="AShQ6hyLjzl0emwVlIt_-1">
          <mxGeometry x="1360" y="195.56" width="55.75" height="55.75" as="geometry" />
        </mxCell>
        <mxCell id="AShQ6hyLjzl0emwVlIt_-16" value="&lt;font style=&quot;font-size: 20px;&quot;&gt;I.O&lt;/font&gt;" style="swimlane;horizontal=0;whiteSpace=wrap;html=1;startSize=78;fillColor=#d5e8d4;strokeColor=#000000;strokeWidth=2;" parent="1" vertex="1">
          <mxGeometry x="-800" y="900" width="2679" height="280" as="geometry" />
        </mxCell>
        <mxCell id="oRjPjbLWCinS1bJcCdLX-24" value="&lt;span style=&quot;&quot;&gt;&lt;span style=&quot;font-size: 13px;&quot;&gt;Receives Invoice&lt;/span&gt;&lt;br&gt;    &lt;/span&gt;" style="rounded=0;whiteSpace=wrap;html=1;fillColor=#F6EFDA;strokeColor=#fcd19c;" vertex="1" parent="AShQ6hyLjzl0emwVlIt_-16">
          <mxGeometry x="1060" y="30" width="150" height="109" as="geometry" />
        </mxCell>
        <mxCell id="AShQ6hyLjzl0emwVlIt_-18" value="&lt;font style=&quot;font-size: 20px;&quot;&gt;Registrar&lt;/font&gt;" style="swimlane;horizontal=0;whiteSpace=wrap;html=1;startSize=78;fillColor=#d5e8d4;strokeColor=#000000;strokeWidth=2;" parent="1" vertex="1">
          <mxGeometry x="-800" y="1150" width="2669" height="200" as="geometry" />
        </mxCell>
        <mxCell id="AShQ6hyLjzl0emwVlIt_-40" value="Makes an entry to the register and approves the application." style="whiteSpace=wrap;html=1;fillColor=#fff2cc;strokeColor=#d6b656;" parent="AShQ6hyLjzl0emwVlIt_-18" vertex="1">
          <mxGeometry x="2340" y="162.005" width="120" height="60" as="geometry" />
        </mxCell>
        <mxCell id="AShQ6hyLjzl0emwVlIt_-41" value="&lt;b id=&quot;docs-internal-guid-e3f8bef9-7fff-8bde-743b-a0e1acd5e658&quot; style=&quot;font-weight:normal;&quot;&gt;&lt;span style=&quot;font-size: 11pt; font-family: &amp;quot;Times New Roman&amp;quot;; color: rgb(0, 0, 0); background-color: transparent; font-weight: 400; font-style: normal; font-variant: normal; text-decoration: none; vertical-align: baseline;&quot;&gt;Title deed should read, title deed reissued for freehold and certificate of lease reissued for leasehold.&amp;nbsp;&lt;br&gt;The approval should revoke the title entry in the register.&lt;br&gt;&lt;/span&gt;&lt;/b&gt;" style="text;html=1;strokeColor=none;fillColor=none;align=center;verticalAlign=middle;whiteSpace=wrap;rounded=0;" parent="AShQ6hyLjzl0emwVlIt_-18" vertex="1">
          <mxGeometry x="2090" y="152.26" width="200" height="94.25" as="geometry" />
        </mxCell>
        <mxCell id="AShQ6hyLjzl0emwVlIt_-42" value="" style="shape=curlyBracket;whiteSpace=wrap;html=1;rounded=1;flipH=1;labelPosition=right;verticalLabelPosition=middle;align=left;verticalAlign=middle;dashed=1;dashPattern=1 1;" parent="AShQ6hyLjzl0emwVlIt_-18" vertex="1">
          <mxGeometry x="2310" y="132.01" width="20" height="120" as="geometry" />
        </mxCell>
        <mxCell id="AShQ6hyLjzl0emwVlIt_-45" value="&lt;font style=&quot;font-size: 20px;&quot;&gt;Government Surveyor&lt;/font&gt;" style="swimlane;horizontal=0;whiteSpace=wrap;html=1;startSize=78;fillColor=#d5e8d4;strokeColor=#000000;strokeWidth=2;" parent="1" vertex="1">
          <mxGeometry x="-800" y="1350" width="2669" height="270" as="geometry" />
        </mxCell>
        <mxCell id="AShQ6hyLjzl0emwVlIt_-58" value="" style="edgeStyle=orthogonalEdgeStyle;rounded=0;orthogonalLoop=1;jettySize=auto;html=1;entryX=0.5;entryY=1;entryDx=0;entryDy=0;strokeWidth=2;fillColor=#fff2cc;strokeColor=#d6b656;" parent="1" source="AShQ6hyLjzl0emwVlIt_-40" target="AShQ6hyLjzl0emwVlIt_-13" edge="1">
          <mxGeometry relative="1" as="geometry">
            <mxPoint x="1780" y="440.9949999999999" as="targetPoint" />
          </mxGeometry>
        </mxCell>
        <mxCell id="oRjPjbLWCinS1bJcCdLX-1" value="&lt;font style=&quot;font-size: 35px;&quot;&gt;&lt;b&gt;LRA 80 -GRANT OF EASEMENT&lt;/b&gt;&lt;/font&gt;" style="text;html=1;strokeColor=none;fillColor=none;align=center;verticalAlign=middle;whiteSpace=wrap;rounded=0;" vertex="1" parent="1">
          <mxGeometry y="-70" width="580" height="30" as="geometry" />
        </mxCell>
        <mxCell id="oRjPjbLWCinS1bJcCdLX-2" value="&lt;font style=&quot;font-size: 20px;&quot;&gt;Collector&lt;br&gt;&lt;/font&gt;" style="swimlane;horizontal=0;whiteSpace=wrap;html=1;startSize=78;fillColor=#d5e8d4;strokeColor=#000000;strokeWidth=2;" vertex="1" parent="1">
          <mxGeometry x="-790" y="580" width="2669" height="280" as="geometry" />
        </mxCell>
        <mxCell id="oRjPjbLWCinS1bJcCdLX-3" value="&lt;span style=&quot;&quot;&gt;&lt;span style=&quot;font-size: 13px;&quot;&gt;Stamp duty is assessed&lt;/span&gt;&lt;br&gt;    &lt;/span&gt;" style="rounded=0;whiteSpace=wrap;html=1;fillColor=#F6EFDA;strokeColor=#fcd19c;" vertex="1" parent="oRjPjbLWCinS1bJcCdLX-2">
          <mxGeometry x="640" y="50" width="150" height="109" as="geometry" />
        </mxCell>
        <mxCell id="oRjPjbLWCinS1bJcCdLX-19" style="edgeStyle=orthogonalEdgeStyle;rounded=0;orthogonalLoop=1;jettySize=auto;html=1;entryX=0;entryY=0.5;entryDx=0;entryDy=0;" edge="1" parent="oRjPjbLWCinS1bJcCdLX-2" source="oRjPjbLWCinS1bJcCdLX-14" target="oRjPjbLWCinS1bJcCdLX-3">
          <mxGeometry relative="1" as="geometry" />
        </mxCell>
        <mxCell id="oRjPjbLWCinS1bJcCdLX-14" value="Grantee" style="rhombus;whiteSpace=wrap;html=1;fillColor=#008a00;strokeColor=#005700;fontColor=#ffffff;strokeWidth=2;" vertex="1" parent="oRjPjbLWCinS1bJcCdLX-2">
          <mxGeometry x="315" y="50" width="110" height="110" as="geometry" />
        </mxCell>
        <mxCell id="oRjPjbLWCinS1bJcCdLX-15" value="" style="edgeStyle=orthogonalEdgeStyle;rounded=0;orthogonalLoop=1;jettySize=auto;html=1;" edge="1" parent="1" source="AShQ6hyLjzl0emwVlIt_-9" target="oRjPjbLWCinS1bJcCdLX-14">
          <mxGeometry relative="1" as="geometry" />
        </mxCell>
        <mxCell id="oRjPjbLWCinS1bJcCdLX-16" style="edgeStyle=orthogonalEdgeStyle;rounded=0;orthogonalLoop=1;jettySize=auto;html=1;entryX=0;entryY=0.5;entryDx=0;entryDy=0;" edge="1" parent="1" source="oRjPjbLWCinS1bJcCdLX-14" target="oRjPjbLWCinS1bJcCdLX-24">
          <mxGeometry relative="1" as="geometry">
            <mxPoint x="-420" y="990" as="targetPoint" />
            <Array as="points">
              <mxPoint x="-420" y="985" />
            </Array>
          </mxGeometry>
        </mxCell>
        <mxCell id="oRjPjbLWCinS1bJcCdLX-18" value="Government,&lt;br&gt;Government Agency,&amp;nbsp;&lt;br&gt;Foreign governments&lt;br&gt;&lt;br&gt;&lt;b&gt;STAMP DUTY IS EXEMPTED&lt;/b&gt;" style="edgeLabel;html=1;align=center;verticalAlign=middle;resizable=0;points=[];" vertex="1" connectable="0" parent="oRjPjbLWCinS1bJcCdLX-16">
          <mxGeometry x="-0.4393" y="1" relative="1" as="geometry">
            <mxPoint x="-14" y="-183" as="offset" />
          </mxGeometry>
        </mxCell>
        <mxCell id="oRjPjbLWCinS1bJcCdLX-21" value="" style="edgeStyle=orthogonalEdgeStyle;rounded=0;orthogonalLoop=1;jettySize=auto;html=1;" edge="1" parent="1" source="oRjPjbLWCinS1bJcCdLX-3" target="oRjPjbLWCinS1bJcCdLX-20">
          <mxGeometry relative="1" as="geometry" />
        </mxCell>
        <mxCell id="oRjPjbLWCinS1bJcCdLX-32" style="edgeStyle=orthogonalEdgeStyle;rounded=0;orthogonalLoop=1;jettySize=auto;html=1;entryX=0.5;entryY=0;entryDx=0;entryDy=0;" edge="1" parent="1" source="oRjPjbLWCinS1bJcCdLX-27" target="oRjPjbLWCinS1bJcCdLX-24">
          <mxGeometry relative="1" as="geometry" />
        </mxCell>
        <mxCell id="oRjPjbLWCinS1bJcCdLX-33" value="Paid" style="edgeLabel;html=1;align=center;verticalAlign=middle;resizable=0;points=[];" vertex="1" connectable="0" parent="oRjPjbLWCinS1bJcCdLX-32">
          <mxGeometry x="-0.4008" y="4" relative="1" as="geometry">
            <mxPoint as="offset" />
          </mxGeometry>
        </mxCell>
      </root>
    </mxGraphModel>
  </diagram>
</mxfile>
